<?xml version="1.0" standalone="no"?>
<!DOCTYPE svg PUBLIC "-//W3C//DTD SVG 1.1//EN" "http://www.w3.org/Graphics/SVG/1.1/DTD/svg11.dtd">
<svg version="1.1" width="1200" height="678" onload="init(evt)" viewBox="0 0 1200 678" xmlns="http://www.w3.org/2000/svg" xmlns:xlink="http://www.w3.org/1999/xlink">
<!-- Flame graph stack visualization. See https://github.com/brendangregg/FlameGraph for latest version, and http://www.brendangregg.com/flamegraphs.html for examples. -->
<!-- NOTES:  -->
<defs>
	<linearGradient id="background" y1="0" y2="1" x1="0" x2="0" >
		<stop stop-color="#eeeeee" offset="5%" />
		<stop stop-color="#eeeeb0" offset="95%" />
	</linearGradient>
</defs>
<style type="text/css">
	text { font-family:Verdana; font-size:12px; fill:rgb(0,0,0); }
	#search, #ignorecase { opacity:0.1; cursor:pointer; }
	#search:hover, #search.show, #ignorecase:hover, #ignorecase.show { opacity:1; }
	#subtitle { text-anchor:middle; font-color:rgb(160,160,160); }
	#title { text-anchor:middle; font-size:17px}
	#unzoom { cursor:pointer; }
	#frames > *:hover { stroke:black; stroke-width:0.5; cursor:pointer; }
	.hide { display:none; }
	.parent { opacity:0.5; }
</style>
<script type="text/ecmascript">
<![CDATA[
	"use strict";
	var details, searchbtn, unzoombtn, matchedtxt, svg, searching, currentSearchTerm, ignorecase, ignorecaseBtn;
	function init(evt) {
		details = document.getElementById("details").firstChild;
		searchbtn = document.getElementById("search");
		ignorecaseBtn = document.getElementById("ignorecase");
		unzoombtn = document.getElementById("unzoom");
		matchedtxt = document.getElementById("matched");
		svg = document.getElementsByTagName("svg")[0];
		searching = 0;
		currentSearchTerm = null;

		// use GET parameters to restore a flamegraphs state.
		var params = get_params();
		if (params.x && params.y)
			zoom(find_group(document.querySelector('[x="' + params.x + '"][y="' + params.y + '"]')));
                if (params.s) search(params.s);
	}

	// event listeners
	window.addEventListener("click", function(e) {
		var target = find_group(e.target);
		if (target) {
			if (target.nodeName == "a") {
				if (e.ctrlKey === false) return;
				e.preventDefault();
			}
			if (target.classList.contains("parent")) unzoom(true);
			zoom(target);
			if (!document.querySelector('.parent')) {
				// we have basically done a clearzoom so clear the url
				var params = get_params();
				if (params.x) delete params.x;
				if (params.y) delete params.y;
				history.replaceState(null, null, parse_params(params));
				unzoombtn.classList.add("hide");
				return;
			}

			// set parameters for zoom state
			var el = target.querySelector("rect");
			if (el && el.attributes && el.attributes.y && el.attributes._orig_x) {
				var params = get_params()
				params.x = el.attributes._orig_x.value;
				params.y = el.attributes.y.value;
				history.replaceState(null, null, parse_params(params));
			}
		}
		else if (e.target.id == "unzoom") clearzoom();
		else if (e.target.id == "search") search_prompt();
		else if (e.target.id == "ignorecase") toggle_ignorecase();
	}, false)

	// mouse-over for info
	// show
	window.addEventListener("mouseover", function(e) {
		var target = find_group(e.target);
		if (target) details.nodeValue = "Function: " + g_to_text(target);
	}, false)

	// clear
	window.addEventListener("mouseout", function(e) {
		var target = find_group(e.target);
		if (target) details.nodeValue = ' ';
	}, false)

	// ctrl-F for search
	// ctrl-I to toggle case-sensitive search
	window.addEventListener("keydown",function (e) {
		if (e.keyCode === 114 || (e.ctrlKey && e.keyCode === 70)) {
			e.preventDefault();
			search_prompt();
		}
		else if (e.ctrlKey && e.keyCode === 73) {
			e.preventDefault();
			toggle_ignorecase();
		}
	}, false)

	// functions
	function get_params() {
		var params = {};
		var paramsarr = window.location.search.substr(1).split('&');
		for (var i = 0; i < paramsarr.length; ++i) {
			var tmp = paramsarr[i].split("=");
			if (!tmp[0] || !tmp[1]) continue;
			params[tmp[0]]  = decodeURIComponent(tmp[1]);
		}
		return params;
	}
	function parse_params(params) {
		var uri = "?";
		for (var key in params) {
			uri += key + '=' + encodeURIComponent(params[key]) + '&';
		}
		if (uri.slice(-1) == "&")
			uri = uri.substring(0, uri.length - 1);
		if (uri == '?')
			uri = window.location.href.split('?')[0];
		return uri;
	}
	function find_child(node, selector) {
		var children = node.querySelectorAll(selector);
		if (children.length) return children[0];
	}
	function find_group(node) {
		var parent = node.parentElement;
		if (!parent) return;
		if (parent.id == "frames") return node;
		return find_group(parent);
	}
	function orig_save(e, attr, val) {
		if (e.attributes["_orig_" + attr] != undefined) return;
		if (e.attributes[attr] == undefined) return;
		if (val == undefined) val = e.attributes[attr].value;
		e.setAttribute("_orig_" + attr, val);
	}
	function orig_load(e, attr) {
		if (e.attributes["_orig_"+attr] == undefined) return;
		e.attributes[attr].value = e.attributes["_orig_" + attr].value;
		e.removeAttribute("_orig_"+attr);
	}
	function g_to_text(e) {
		var text = find_child(e, "title").firstChild.nodeValue;
		return (text)
	}
	function g_to_func(e) {
		var func = g_to_text(e);
		// if there's any manipulation we want to do to the function
		// name before it's searched, do it here before returning.
		return (func);
	}
	function update_text(e) {
		var r = find_child(e, "rect");
		var t = find_child(e, "text");
		var w = parseFloat(r.attributes.width.value) -3;
		var txt = find_child(e, "title").textContent.replace(/\([^(]*\)$/,"");
		t.attributes.x.value = parseFloat(r.attributes.x.value) + 3;

		// Smaller than this size won't fit anything
		if (w < 2 * 12 * 0.59) {
			t.textContent = "";
			return;
		}

		t.textContent = txt;
		var sl = t.getSubStringLength(0, txt.length);
		// check if only whitespace or if we can fit the entire string into width w
		if (/^ *$/.test(txt) || sl < w)
			return;

		// this isn't perfect, but gives a good starting point
		// and avoids calling getSubStringLength too often
		var start = Math.floor((w/sl) * txt.length);
		for (var x = start; x > 0; x = x-2) {
			if (t.getSubStringLength(0, x + 2) <= w) {
				t.textContent = txt.substring(0, x) + "..";
				return;
			}
		}
		t.textContent = "";
	}

	// zoom
	function zoom_reset(e) {
		if (e.attributes != undefined) {
			orig_load(e, "x");
			orig_load(e, "width");
		}
		if (e.childNodes == undefined) return;
		for (var i = 0, c = e.childNodes; i < c.length; i++) {
			zoom_reset(c[i]);
		}
	}
	function zoom_child(e, x, ratio) {
		if (e.attributes != undefined) {
			if (e.attributes.x != undefined) {
				orig_save(e, "x");
				e.attributes.x.value = (parseFloat(e.attributes.x.value) - x - 10) * ratio + 10;
				if (e.tagName == "text")
					e.attributes.x.value = find_child(e.parentNode, "rect[x]").attributes.x.value + 3;
			}
			if (e.attributes.width != undefined) {
				orig_save(e, "width");
				e.attributes.width.value = parseFloat(e.attributes.width.value) * ratio;
			}
		}

		if (e.childNodes == undefined) return;
		for (var i = 0, c = e.childNodes; i < c.length; i++) {
			zoom_child(c[i], x - 10, ratio);
		}
	}
	function zoom_parent(e) {
		if (e.attributes) {
			if (e.attributes.x != undefined) {
				orig_save(e, "x");
				e.attributes.x.value = 10;
			}
			if (e.attributes.width != undefined) {
				orig_save(e, "width");
				e.attributes.width.value = parseInt(svg.width.baseVal.value) - (10 * 2);
			}
		}
		if (e.childNodes == undefined) return;
		for (var i = 0, c = e.childNodes; i < c.length; i++) {
			zoom_parent(c[i]);
		}
	}
	function zoom(node) {
		var attr = find_child(node, "rect").attributes;
		var width = parseFloat(attr.width.value);
		var xmin = parseFloat(attr.x.value);
		var xmax = parseFloat(xmin + width);
		var ymin = parseFloat(attr.y.value);
		var ratio = (svg.width.baseVal.value - 2 * 10) / width;

		// XXX: Workaround for JavaScript float issues (fix me)
		var fudge = 0.0001;

		unzoombtn.classList.remove("hide");

		var el = document.getElementById("frames").children;
		for (var i = 0; i < el.length; i++) {
			var e = el[i];
			var a = find_child(e, "rect").attributes;
			var ex = parseFloat(a.x.value);
			var ew = parseFloat(a.width.value);
			var upstack;
			// Is it an ancestor
			if (0 == 0) {
				upstack = parseFloat(a.y.value) > ymin;
			} else {
				upstack = parseFloat(a.y.value) < ymin;
			}
			if (upstack) {
				// Direct ancestor
				if (ex <= xmin && (ex+ew+fudge) >= xmax) {
					e.classList.add("parent");
					zoom_parent(e);
					update_text(e);
				}
				// not in current path
				else
					e.classList.add("hide");
			}
			// Children maybe
			else {
				// no common path
				if (ex < xmin || ex + fudge >= xmax) {
					e.classList.add("hide");
				}
				else {
					zoom_child(e, xmin, ratio);
					update_text(e);
				}
			}
		}
		search();
	}
	function unzoom(dont_update_text) {
		unzoombtn.classList.add("hide");
		var el = document.getElementById("frames").children;
		for(var i = 0; i < el.length; i++) {
			el[i].classList.remove("parent");
			el[i].classList.remove("hide");
			zoom_reset(el[i]);
			if(!dont_update_text) update_text(el[i]);
		}
		search();
	}
	function clearzoom() {
		unzoom();

		// remove zoom state
		var params = get_params();
		if (params.x) delete params.x;
		if (params.y) delete params.y;
		history.replaceState(null, null, parse_params(params));
	}

	// search
	function toggle_ignorecase() {
		ignorecase = !ignorecase;
		if (ignorecase) {
			ignorecaseBtn.classList.add("show");
		} else {
			ignorecaseBtn.classList.remove("show");
		}
		reset_search();
		search();
	}
	function reset_search() {
		var el = document.querySelectorAll("#frames rect");
		for (var i = 0; i < el.length; i++) {
			orig_load(el[i], "fill")
		}
		var params = get_params();
		delete params.s;
		history.replaceState(null, null, parse_params(params));
	}
	function search_prompt() {
		if (!searching) {
			var term = prompt("Enter a search term (regexp " +
			    "allowed, eg: ^ext4_)"
			    + (ignorecase ? ", ignoring case" : "")
			    + "\nPress Ctrl-i to toggle case sensitivity", "");
			if (term != null) search(term);
		} else {
			reset_search();
			searching = 0;
			currentSearchTerm = null;
			searchbtn.classList.remove("show");
			searchbtn.firstChild.nodeValue = "Search"
			matchedtxt.classList.add("hide");
			matchedtxt.firstChild.nodeValue = ""
		}
	}
	function search(term) {
		if (term) currentSearchTerm = term;
		if (currentSearchTerm === null) return;

		var re = new RegExp(currentSearchTerm, ignorecase ? 'i' : '');
		var el = document.getElementById("frames").children;
		var matches = new Object();
		var maxwidth = 0;
		for (var i = 0; i < el.length; i++) {
			var e = el[i];
			var func = g_to_func(e);
			var rect = find_child(e, "rect");
			if (func == null || rect == null)
				continue;

			// Save max width. Only works as we have a root frame
			var w = parseFloat(rect.attributes.width.value);
			if (w > maxwidth)
				maxwidth = w;

			if (func.match(re)) {
				// highlight
				var x = parseFloat(rect.attributes.x.value);
				orig_save(rect, "fill");
				rect.attributes.fill.value = "rgb(230,0,230)";

				// remember matches
				if (matches[x] == undefined) {
					matches[x] = w;
				} else {
					if (w > matches[x]) {
						// overwrite with parent
						matches[x] = w;
					}
				}
				searching = 1;
			}
		}
		if (!searching)
			return;
		var params = get_params();
		params.s = currentSearchTerm;
		history.replaceState(null, null, parse_params(params));

		searchbtn.classList.add("show");
		searchbtn.firstChild.nodeValue = "Reset Search";

		// calculate percent matched, excluding vertical overlap
		var count = 0;
		var lastx = -1;
		var lastw = 0;
		var keys = Array();
		for (k in matches) {
			if (matches.hasOwnProperty(k))
				keys.push(k);
		}
		// sort the matched frames by their x location
		// ascending, then width descending
		keys.sort(function(a, b){
			return a - b;
		});
		// Step through frames saving only the biggest bottom-up frames
		// thanks to the sort order. This relies on the tree property
		// where children are always smaller than their parents.
		var fudge = 0.0001;	// JavaScript floating point
		for (var k in keys) {
			var x = parseFloat(keys[k]);
			var w = matches[keys[k]];
			if (x >= lastx + lastw - fudge) {
				count += w;
				lastx = x;
				lastw = w;
			}
		}
		// display matched percent
		matchedtxt.classList.remove("hide");
		var pct = 100 * count / maxwidth;
		if (pct != 100) pct = pct.toFixed(1)
		matchedtxt.firstChild.nodeValue = "Matched: " + pct + "%";
	}
]]>
</script>
<rect x="0.0" y="0" width="1200.0" height="678.0" fill="url(#background)"  />
<text id="title" x="600.00" y="24" >Flame Graph</text>
<text id="details" x="10.00" y="661" > </text>
<text id="unzoom" x="10.00" y="24" class="hide">Reset Zoom</text>
<text id="search" x="1090.00" y="24" >Search</text>
<text id="ignorecase" x="1174.00" y="24" >ic</text>
<text id="matched" x="1090.00" y="661" > </text>
<g id="frames">
<g >
<title>[unknown]  (60,606,060 samples, 2.14%)</title><rect x="52.1" y="581" width="25.3" height="15.0" fill="rgb(253,223,53)" rx="2" ry="2" />
<text  x="55.14" y="591.5" >[..</text>
</g>
<g >
<title>[unknown] (70,707,070 samples, 2.50%)</title><rect x="52.1" y="597" width="29.5" height="15.0" fill="rgb(210,24,5)" rx="2" ry="2" />
<text  x="55.14" y="607.5" >[u..</text>
</g>
<g >
<title>[unknown] (10,101,010 samples, 0.36%)</title><rect x="111.1" y="213" width="4.3" height="15.0" fill="rgb(210,24,5)" rx="2" ry="2" />
<text  x="114.14" y="223.5" ></text>
</g>
<g >
<title>[unknown] (10,101,010 samples, 0.36%)</title><rect x="47.9" y="485" width="4.2" height="15.0" fill="rgb(210,24,5)" rx="2" ry="2" />
<text  x="50.93" y="495.5" ></text>
</g>
<g >
<title>[unknown] (1,303,030,290 samples, 46.07%)</title><rect x="646.4" y="533" width="543.6" height="15.0" fill="rgb(210,24,5)" rx="2" ry="2" />
<text  x="649.36" y="543.5" >[unknown]</text>
</g>
<g >
<title>[unknown] (10,101,010 samples, 0.36%)</title><rect x="73.2" y="405" width="4.2" height="15.0" fill="rgb(210,24,5)" rx="2" ry="2" />
<text  x="76.21" y="415.5" ></text>
</g>
<g >
<title>[unknown] (20,202,020 samples, 0.71%)</title><rect x="64.8" y="485" width="8.4" height="15.0" fill="rgb(210,24,5)" rx="2" ry="2" />
<text  x="67.79" y="495.5" ></text>
</g>
<g >
<title>[unknown] (50,505,050 samples, 1.79%)</title><rect x="1168.9" y="373" width="21.1" height="15.0" fill="rgb(210,24,5)" rx="2" ry="2" />
<text  x="1171.93" y="383.5" ></text>
</g>
<g >
<title>[unknown] (10,101,010 samples, 0.36%)</title><rect x="587.4" y="517" width="4.2" height="15.0" fill="rgb(210,24,5)" rx="2" ry="2" />
<text  x="590.36" y="527.5" ></text>
</g>
<g >
<title>[unknown] (10,101,010 samples, 0.36%)</title><rect x="473.6" y="517" width="4.2" height="15.0" fill="rgb(210,24,5)" rx="2" ry="2" />
<text  x="476.57" y="527.5" ></text>
</g>
<g >
<title>[unknown] (10,101,010 samples, 0.36%)</title><rect x="73.2" y="421" width="4.2" height="15.0" fill="rgb(210,24,5)" rx="2" ry="2" />
<text  x="76.21" y="431.5" ></text>
</g>
<g >
<title>[unknown] (1,313,131,300 samples, 46.43%)</title><rect x="642.1" y="565" width="547.9" height="15.0" fill="rgb(210,24,5)" rx="2" ry="2" />
<text  x="645.14" y="575.5" >[unknown]</text>
</g>
<g >
<title>AABB::intersect (838,383,830 samples, 29.64%)</title><rect x="128.0" y="581" width="349.8" height="15.0" fill="rgb(210,24,5)" rx="2" ry="2" />
<text  x="131.00" y="591.5" >AABB::intersect</text>
</g>
<g >
<title>[unknown] (10,101,010 samples, 0.36%)</title><rect x="111.1" y="565" width="4.3" height="15.0" fill="rgb(210,24,5)" rx="2" ry="2" />
<text  x="114.14" y="575.5" ></text>
</g>
<g >
<title>[unknown] (10,101,010 samples, 0.36%)</title><rect x="73.2" y="437" width="4.2" height="15.0" fill="rgb(210,24,5)" rx="2" ry="2" />
<text  x="76.21" y="447.5" ></text>
</g>
<g >
<title>[unknown] (10,101,010 samples, 0.36%)</title><rect x="111.1" y="533" width="4.3" height="15.0" fill="rgb(210,24,5)" rx="2" ry="2" />
<text  x="114.14" y="543.5" ></text>
</g>
<g >
<title>[unknown] (10,101,010 samples, 0.36%)</title><rect x="47.9" y="549" width="4.2" height="15.0" fill="rgb(210,24,5)" rx="2" ry="2" />
<text  x="50.93" y="559.5" ></text>
</g>
<g >
<title>[unknown] (10,101,010 samples, 0.36%)</title><rect x="73.2" y="501" width="4.2" height="15.0" fill="rgb(210,24,5)" rx="2" ry="2" />
<text  x="76.21" y="511.5" ></text>
</g>
<g >
<title>[unknown] (10,101,010 samples, 0.36%)</title><rect x="73.2" y="469" width="4.2" height="15.0" fill="rgb(210,24,5)" rx="2" ry="2" />
<text  x="76.21" y="479.5" ></text>
</g>
<g >
<title>Vector::operator+ (10,101,010 samples, 0.36%)</title><rect x="528.4" y="581" width="4.2" height="15.0" fill="rgb(227,102,24)" rx="2" ry="2" />
<text  x="531.36" y="591.5" ></text>
</g>
<g >
<title>[unknown] (10,101,010 samples, 0.36%)</title><rect x="77.4" y="581" width="4.2" height="15.0" fill="rgb(210,24,5)" rx="2" ry="2" />
<text  x="80.43" y="591.5" ></text>
</g>
<g >
<title>[unknown] (1,141,414,130 samples, 40.36%)</title><rect x="115.4" y="597" width="476.2" height="15.0" fill="rgb(210,24,5)" rx="2" ry="2" />
<text  x="118.36" y="607.5" >[unknown]</text>
</g>
<g >
<title>[unknown] (10,101,010 samples, 0.36%)</title><rect x="587.4" y="565" width="4.2" height="15.0" fill="rgb(210,24,5)" rx="2" ry="2" />
<text  x="590.36" y="575.5" ></text>
</g>
<g >
<title>[unknown] (10,101,010 samples, 0.36%)</title><rect x="473.6" y="565" width="4.2" height="15.0" fill="rgb(210,24,5)" rx="2" ry="2" />
<text  x="476.57" y="575.5" ></text>
</g>
<g >
<title>[unknown] (10,101,010 samples, 0.36%)</title><rect x="111.1" y="245" width="4.3" height="15.0" fill="rgb(210,24,5)" rx="2" ry="2" />
<text  x="114.14" y="255.5" ></text>
</g>
<g >
<title>[unknown] (10,101,010 samples, 0.36%)</title><rect x="73.2" y="485" width="4.2" height="15.0" fill="rgb(210,24,5)" rx="2" ry="2" />
<text  x="76.21" y="495.5" ></text>
</g>
<g >
<title>[unknown] (40,404,040 samples, 1.43%)</title><rect x="1173.1" y="293" width="16.9" height="15.0" fill="rgb(210,24,5)" rx="2" ry="2" />
<text  x="1176.14" y="303.5" ></text>
</g>
<g >
<title>[unknown] (1,292,929,280 samples, 45.71%)</title><rect x="650.6" y="517" width="539.4" height="15.0" fill="rgb(210,24,5)" rx="2" ry="2" />
<text  x="653.57" y="527.5" >[unknown]</text>
</g>
<g >
<title>[unknown] (50,505,050 samples, 1.79%)</title><rect x="1168.9" y="357" width="21.1" height="15.0" fill="rgb(210,24,5)" rx="2" ry="2" />
<text  x="1171.93" y="367.5" ></text>
</g>
<g >
<title>AABB::expand (30,303,030 samples, 1.07%)</title><rect x="115.4" y="581" width="12.6" height="15.0" fill="rgb(237,148,35)" rx="2" ry="2" />
<text  x="118.36" y="591.5" ></text>
</g>
<g >
<title>[unknown] (10,101,010 samples, 0.36%)</title><rect x="587.4" y="533" width="4.2" height="15.0" fill="rgb(210,24,5)" rx="2" ry="2" />
<text  x="590.36" y="543.5" ></text>
</g>
<g >
<title>[unknown] (10,101,010 samples, 0.36%)</title><rect x="473.6" y="533" width="4.2" height="15.0" fill="rgb(210,24,5)" rx="2" ry="2" />
<text  x="476.57" y="543.5" ></text>
</g>
<g >
<title>[unknown] (20,202,020 samples, 0.71%)</title><rect x="64.8" y="389" width="8.4" height="15.0" fill="rgb(210,24,5)" rx="2" ry="2" />
<text  x="67.79" y="399.5" ></text>
</g>
<g >
<title>[unknown] (10,101,010 samples, 0.36%)</title><rect x="111.1" y="261" width="4.3" height="15.0" fill="rgb(210,24,5)" rx="2" ry="2" />
<text  x="114.14" y="271.5" ></text>
</g>
<g >
<title>[unknown] (10,101,010 samples, 0.36%)</title><rect x="587.4" y="453" width="4.2" height="15.0" fill="rgb(210,24,5)" rx="2" ry="2" />
<text  x="590.36" y="463.5" ></text>
</g>
<g >
<title>main.exe (1,333,333,320 samples, 47.14%)</title><rect x="81.6" y="613" width="556.3" height="15.0" fill="rgb(216,53,12)" rx="2" ry="2" />
<text  x="84.64" y="623.5" >main.exe</text>
</g>
<g >
<title>[unknown] (10,101,010 samples, 0.36%)</title><rect x="1185.8" y="69" width="4.2" height="15.0" fill="rgb(210,24,5)" rx="2" ry="2" />
<text  x="1188.79" y="79.5" ></text>
</g>
<g >
<title>[unknown] (10,101,010 samples, 0.36%)</title><rect x="111.1" y="149" width="4.3" height="15.0" fill="rgb(210,24,5)" rx="2" ry="2" />
<text  x="114.14" y="159.5" ></text>
</g>
<g >
<title>[unknown] (383,838,380 samples, 13.57%)</title><rect x="1029.9" y="405" width="160.1" height="15.0" fill="rgb(210,24,5)" rx="2" ry="2" />
<text  x="1032.86" y="415.5" >[unknown]</text>
</g>
<g >
<title>[unknown] (10,101,010 samples, 0.36%)</title><rect x="111.1" y="453" width="4.3" height="15.0" fill="rgb(210,24,5)" rx="2" ry="2" />
<text  x="114.14" y="463.5" ></text>
</g>
<g >
<title>[unknown] (10,101,010 samples, 0.36%)</title><rect x="111.1" y="197" width="4.3" height="15.0" fill="rgb(210,24,5)" rx="2" ry="2" />
<text  x="114.14" y="207.5" ></text>
</g>
<g >
<title>[unknown]  (40,404,040 samples, 1.43%)</title><rect x="56.4" y="549" width="16.8" height="15.0" fill="rgb(253,223,53)" rx="2" ry="2" />
<text  x="59.36" y="559.5" ></text>
</g>
<g >
<title>[unknown] (383,838,380 samples, 13.57%)</title><rect x="1029.9" y="421" width="160.1" height="15.0" fill="rgb(210,24,5)" rx="2" ry="2" />
<text  x="1032.86" y="431.5" >[unknown]</text>
</g>
<g >
<title>[unknown] (1,323,232,310 samples, 46.79%)</title><rect x="637.9" y="581" width="552.1" height="15.0" fill="rgb(210,24,5)" rx="2" ry="2" />
<text  x="640.93" y="591.5" >[unknown]</text>
</g>
<g >
<title>[unknown] (20,202,020 samples, 0.71%)</title><rect x="64.8" y="453" width="8.4" height="15.0" fill="rgb(210,24,5)" rx="2" ry="2" />
<text  x="67.79" y="463.5" ></text>
</g>
<g >
<title>[unknown] (10,101,010 samples, 0.36%)</title><rect x="73.2" y="549" width="4.2" height="15.0" fill="rgb(210,24,5)" rx="2" ry="2" />
<text  x="76.21" y="559.5" ></text>
</g>
<g >
<title>[unknown] (1,323,232,310 samples, 46.79%)</title><rect x="637.9" y="597" width="552.1" height="15.0" fill="rgb(210,24,5)" rx="2" ry="2" />
<text  x="640.93" y="607.5" >[unknown]</text>
</g>
<g >
<title>[unknown] (383,838,380 samples, 13.57%)</title><rect x="1029.9" y="437" width="160.1" height="15.0" fill="rgb(210,24,5)" rx="2" ry="2" />
<text  x="1032.86" y="447.5" >[unknown]</text>
</g>
<g >
<title>[unknown] (10,101,010 samples, 0.36%)</title><rect x="111.1" y="341" width="4.3" height="15.0" fill="rgb(210,24,5)" rx="2" ry="2" />
<text  x="114.14" y="351.5" ></text>
</g>
<g >
<title>[unknown] (50,505,050 samples, 1.79%)</title><rect x="1168.9" y="325" width="21.1" height="15.0" fill="rgb(210,24,5)" rx="2" ry="2" />
<text  x="1171.93" y="335.5" ></text>
</g>
<g >
<title>getLight (20,202,020 samples, 0.71%)</title><rect x="629.5" y="565" width="8.4" height="15.0" fill="rgb(240,163,39)" rx="2" ry="2" />
<text  x="632.50" y="575.5" ></text>
</g>
<g >
<title>[unknown] (20,202,020 samples, 0.71%)</title><rect x="64.8" y="501" width="8.4" height="15.0" fill="rgb(210,24,5)" rx="2" ry="2" />
<text  x="67.79" y="511.5" ></text>
</g>
<g >
<title>[unknown] (30,303,030 samples, 1.07%)</title><rect x="1177.4" y="229" width="12.6" height="15.0" fill="rgb(210,24,5)" rx="2" ry="2" />
<text  x="1180.36" y="239.5" ></text>
</g>
<g >
<title>[unknown] (10,101,010 samples, 0.36%)</title><rect x="111.1" y="309" width="4.3" height="15.0" fill="rgb(210,24,5)" rx="2" ry="2" />
<text  x="114.14" y="319.5" ></text>
</g>
<g >
<title>[unknown] (10,101,010 samples, 0.36%)</title><rect x="111.1" y="277" width="4.3" height="15.0" fill="rgb(210,24,5)" rx="2" ry="2" />
<text  x="114.14" y="287.5" ></text>
</g>
<g >
<title>[unknown]  (20,202,020 samples, 0.71%)</title><rect x="39.5" y="581" width="8.4" height="15.0" fill="rgb(253,223,53)" rx="2" ry="2" />
<text  x="42.50" y="591.5" ></text>
</g>
<g >
<title>Vector::Vector (20,202,020 samples, 0.71%)</title><rect x="519.9" y="581" width="8.5" height="15.0" fill="rgb(213,39,9)" rx="2" ry="2" />
<text  x="522.93" y="591.5" ></text>
</g>
<g >
<title>[unknown] (30,303,030 samples, 1.07%)</title><rect x="1177.4" y="181" width="12.6" height="15.0" fill="rgb(210,24,5)" rx="2" ry="2" />
<text  x="1180.36" y="191.5" ></text>
</g>
<g >
<title>[unknown] (20,202,020 samples, 0.71%)</title><rect x="39.5" y="533" width="8.4" height="15.0" fill="rgb(210,24,5)" rx="2" ry="2" />
<text  x="42.50" y="543.5" ></text>
</g>
<g >
<title>[unknown] (10,101,010 samples, 0.36%)</title><rect x="111.1" y="165" width="4.3" height="15.0" fill="rgb(210,24,5)" rx="2" ry="2" />
<text  x="114.14" y="175.5" ></text>
</g>
<g >
<title>[unknown] (10,101,010 samples, 0.36%)</title><rect x="1185.8" y="133" width="4.2" height="15.0" fill="rgb(210,24,5)" rx="2" ry="2" />
<text  x="1188.79" y="143.5" ></text>
</g>
<g >
<title>[unknown] (10,101,010 samples, 0.36%)</title><rect x="47.9" y="501" width="4.2" height="15.0" fill="rgb(210,24,5)" rx="2" ry="2" />
<text  x="50.93" y="511.5" ></text>
</g>
<g >
<title>[unknown] (10,101,010 samples, 0.36%)</title><rect x="111.1" y="517" width="4.3" height="15.0" fill="rgb(210,24,5)" rx="2" ry="2" />
<text  x="114.14" y="527.5" ></text>
</g>
<g >
<title>[unknown] (20,202,020 samples, 0.71%)</title><rect x="39.5" y="565" width="8.4" height="15.0" fill="rgb(210,24,5)" rx="2" ry="2" />
<text  x="42.50" y="575.5" ></text>
</g>
<g >
<title>Triangle::getLightIntersection (10,101,010 samples, 0.36%)</title><rect x="515.7" y="581" width="4.2" height="15.0" fill="rgb(220,72,17)" rx="2" ry="2" />
<text  x="518.71" y="591.5" ></text>
</g>
<g >
<title>[unknown] (1,272,727,260 samples, 45.00%)</title><rect x="659.0" y="469" width="531.0" height="15.0" fill="rgb(210,24,5)" rx="2" ry="2" />
<text  x="662.00" y="479.5" >[unknown]</text>
</g>
<g >
<title>[unknown] (10,101,010 samples, 0.36%)</title><rect x="111.1" y="389" width="4.3" height="15.0" fill="rgb(210,24,5)" rx="2" ry="2" />
<text  x="114.14" y="399.5" ></text>
</g>
<g >
<title>[unknown] (10,101,010 samples, 0.36%)</title><rect x="47.9" y="517" width="4.2" height="15.0" fill="rgb(210,24,5)" rx="2" ry="2" />
<text  x="50.93" y="527.5" ></text>
</g>
<g >
<title>[unknown] (10,101,010 samples, 0.36%)</title><rect x="111.1" y="501" width="4.3" height="15.0" fill="rgb(210,24,5)" rx="2" ry="2" />
<text  x="114.14" y="511.5" ></text>
</g>
<g >
<title>[unknown] (20,202,020 samples, 0.71%)</title><rect x="39.5" y="549" width="8.4" height="15.0" fill="rgb(210,24,5)" rx="2" ry="2" />
<text  x="42.50" y="559.5" ></text>
</g>
<g >
<title>[libsratom-0.so.0.6.8] (10,101,010 samples, 0.36%)</title><rect x="35.3" y="581" width="4.2" height="15.0" fill="rgb(219,66,15)" rx="2" ry="2" />
<text  x="38.29" y="591.5" ></text>
</g>
<g >
<title>[unknown] (10,101,010 samples, 0.36%)</title><rect x="69.0" y="373" width="4.2" height="15.0" fill="rgb(210,24,5)" rx="2" ry="2" />
<text  x="72.00" y="383.5" ></text>
</g>
<g >
<title>[unknown] (10,101,010 samples, 0.36%)</title><rect x="1185.8" y="53" width="4.2" height="15.0" fill="rgb(210,24,5)" rx="2" ry="2" />
<text  x="1188.79" y="63.5" ></text>
</g>
<g >
<title>[unknown] (10,101,010 samples, 0.36%)</title><rect x="587.4" y="485" width="4.2" height="15.0" fill="rgb(210,24,5)" rx="2" ry="2" />
<text  x="590.36" y="495.5" ></text>
</g>
<g >
<title>[unknown] (10,101,010 samples, 0.36%)</title><rect x="473.6" y="485" width="4.2" height="15.0" fill="rgb(210,24,5)" rx="2" ry="2" />
<text  x="476.57" y="495.5" ></text>
</g>
<g >
<title>[unknown] (10,101,010 samples, 0.36%)</title><rect x="73.2" y="565" width="4.2" height="15.0" fill="rgb(210,24,5)" rx="2" ry="2" />
<text  x="76.21" y="575.5" ></text>
</g>
<g >
<title>[unknown] (20,202,020 samples, 0.71%)</title><rect x="64.8" y="517" width="8.4" height="15.0" fill="rgb(210,24,5)" rx="2" ry="2" />
<text  x="67.79" y="527.5" ></text>
</g>
<g >
<title>[unknown] (10,101,010 samples, 0.36%)</title><rect x="47.9" y="581" width="4.2" height="15.0" fill="rgb(210,24,5)" rx="2" ry="2" />
<text  x="50.93" y="591.5" ></text>
</g>
<g >
<title>[unknown] (10,101,010 samples, 0.36%)</title><rect x="73.2" y="533" width="4.2" height="15.0" fill="rgb(210,24,5)" rx="2" ry="2" />
<text  x="76.21" y="543.5" ></text>
</g>
<g >
<title>refresh (111,111,110 samples, 3.93%)</title><rect x="591.6" y="597" width="46.3" height="15.0" fill="rgb(212,32,7)" rx="2" ry="2" />
<text  x="594.57" y="607.5" >refr..</text>
</g>
<g >
<title>[unknown]  (101,010,100 samples, 3.57%)</title><rect x="10.0" y="597" width="42.1" height="15.0" fill="rgb(253,223,53)" rx="2" ry="2" />
<text  x="13.00" y="607.5" >[un..</text>
</g>
<g >
<title>[unknown] (30,303,030 samples, 1.07%)</title><rect x="1177.4" y="213" width="12.6" height="15.0" fill="rgb(210,24,5)" rx="2" ry="2" />
<text  x="1180.36" y="223.5" ></text>
</g>
<g >
<title>[unknown] (10,101,010 samples, 0.36%)</title><rect x="73.2" y="453" width="4.2" height="15.0" fill="rgb(210,24,5)" rx="2" ry="2" />
<text  x="76.21" y="463.5" ></text>
</g>
<g >
<title>[unknown] (10,101,010 samples, 0.36%)</title><rect x="587.4" y="549" width="4.2" height="15.0" fill="rgb(210,24,5)" rx="2" ry="2" />
<text  x="590.36" y="559.5" ></text>
</g>
<g >
<title>[unknown] (10,101,010 samples, 0.36%)</title><rect x="473.6" y="549" width="4.2" height="15.0" fill="rgb(210,24,5)" rx="2" ry="2" />
<text  x="476.57" y="559.5" ></text>
</g>
<g >
<title>Triangle::Triangle (10,101,010 samples, 0.36%)</title><rect x="511.5" y="581" width="4.2" height="15.0" fill="rgb(244,180,43)" rx="2" ry="2" />
<text  x="514.50" y="591.5" ></text>
</g>
<g >
<title>ffmpeg (171,717,170 samples, 6.07%)</title><rect x="10.0" y="613" width="71.6" height="15.0" fill="rgb(250,208,49)" rx="2" ry="2" />
<text  x="13.00" y="623.5" >ffmpeg</text>
</g>
<g >
<title>[unknown] (10,101,010 samples, 0.36%)</title><rect x="111.1" y="373" width="4.3" height="15.0" fill="rgb(210,24,5)" rx="2" ry="2" />
<text  x="114.14" y="383.5" ></text>
</g>
<g >
<title>[unknown] (1,292,929,280 samples, 45.71%)</title><rect x="650.6" y="501" width="539.4" height="15.0" fill="rgb(210,24,5)" rx="2" ry="2" />
<text  x="653.57" y="511.5" >[unknown]</text>
</g>
<g >
<title>[unknown] (20,202,020 samples, 0.71%)</title><rect x="64.8" y="405" width="8.4" height="15.0" fill="rgb(210,24,5)" rx="2" ry="2" />
<text  x="67.79" y="415.5" ></text>
</g>
<g >
<title>[unknown] (10,101,010 samples, 0.36%)</title><rect x="587.4" y="469" width="4.2" height="15.0" fill="rgb(210,24,5)" rx="2" ry="2" />
<text  x="590.36" y="479.5" ></text>
</g>
<g >
<title>[unknown] (10,101,010 samples, 0.36%)</title><rect x="111.1" y="437" width="4.3" height="15.0" fill="rgb(210,24,5)" rx="2" ry="2" />
<text  x="114.14" y="447.5" ></text>
</g>
<g >
<title>[unknown] (50,505,050 samples, 1.79%)</title><rect x="1168.9" y="341" width="21.1" height="15.0" fill="rgb(210,24,5)" rx="2" ry="2" />
<text  x="1171.93" y="351.5" ></text>
</g>
<g >
<title>[unknown] (20,202,020 samples, 0.71%)</title><rect x="64.8" y="533" width="8.4" height="15.0" fill="rgb(210,24,5)" rx="2" ry="2" />
<text  x="67.79" y="543.5" ></text>
</g>
<g >
<title>Ray::Ray (10,101,010 samples, 0.36%)</title><rect x="81.6" y="597" width="4.3" height="15.0" fill="rgb(238,153,36)" rx="2" ry="2" />
<text  x="84.64" y="607.5" ></text>
</g>
<g >
<title>all (2,828,282,800 samples, 100%)</title><rect x="10.0" y="629" width="1180.0" height="15.0" fill="rgb(213,39,9)" rx="2" ry="2" />
<text  x="13.00" y="639.5" ></text>
</g>
<g >
<title>[unknown] (1,272,727,260 samples, 45.00%)</title><rect x="659.0" y="485" width="531.0" height="15.0" fill="rgb(210,24,5)" rx="2" ry="2" />
<text  x="662.00" y="495.5" >[unknown]</text>
</g>
<g >
<title>[unknown] (10,101,010 samples, 0.36%)</title><rect x="111.1" y="229" width="4.3" height="15.0" fill="rgb(210,24,5)" rx="2" ry="2" />
<text  x="114.14" y="239.5" ></text>
</g>
<g >
<title>[unknown] (50,505,050 samples, 1.79%)</title><rect x="1168.9" y="309" width="21.1" height="15.0" fill="rgb(210,24,5)" rx="2" ry="2" />
<text  x="1171.93" y="319.5" ></text>
</g>
<g >
<title>[unknown] (20,202,020 samples, 0.71%)</title><rect x="64.8" y="421" width="8.4" height="15.0" fill="rgb(210,24,5)" rx="2" ry="2" />
<text  x="67.79" y="431.5" ></text>
</g>
<g >
<title>[unknown] (10,101,010 samples, 0.36%)</title><rect x="73.2" y="517" width="4.2" height="15.0" fill="rgb(210,24,5)" rx="2" ry="2" />
<text  x="76.21" y="527.5" ></text>
</g>
<g >
<title>[unknown] (10,101,010 samples, 0.36%)</title><rect x="111.1" y="325" width="4.3" height="15.0" fill="rgb(210,24,5)" rx="2" ry="2" />
<text  x="114.14" y="335.5" ></text>
</g>
<g >
<title>[unknown] (10,101,010 samples, 0.36%)</title><rect x="1185.8" y="37" width="4.2" height="15.0" fill="rgb(210,24,5)" rx="2" ry="2" />
<text  x="1188.79" y="47.5" ></text>
</g>
<g >
<title>[unknown] (10,101,010 samples, 0.36%)</title><rect x="47.9" y="533" width="4.2" height="15.0" fill="rgb(210,24,5)" rx="2" ry="2" />
<text  x="50.93" y="543.5" ></text>
</g>
<g >
<title>[unknown] (10,101,010 samples, 0.36%)</title><rect x="1185.8" y="101" width="4.2" height="15.0" fill="rgb(210,24,5)" rx="2" ry="2" />
<text  x="1188.79" y="111.5" ></text>
</g>
<g >
<title>[unknown] (10,101,010 samples, 0.36%)</title><rect x="111.1" y="549" width="4.3" height="15.0" fill="rgb(210,24,5)" rx="2" ry="2" />
<text  x="114.14" y="559.5" ></text>
</g>
<g >
<title>calcColor (101,010,100 samples, 3.57%)</title><rect x="595.8" y="581" width="42.1" height="15.0" fill="rgb(209,19,4)" rx="2" ry="2" />
<text  x="598.79" y="591.5" >cal..</text>
</g>
<g >
<title>[unknown] (40,404,040 samples, 1.43%)</title><rect x="1173.1" y="277" width="16.9" height="15.0" fill="rgb(210,24,5)" rx="2" ry="2" />
<text  x="1176.14" y="287.5" ></text>
</g>
<g >
<title>swapper (1,323,232,310 samples, 46.79%)</title><rect x="637.9" y="613" width="552.1" height="15.0" fill="rgb(239,158,37)" rx="2" ry="2" />
<text  x="640.93" y="623.5" >swapper</text>
</g>
<g >
<title>[unknown] (10,101,010 samples, 0.36%)</title><rect x="111.1" y="181" width="4.3" height="15.0" fill="rgb(210,24,5)" rx="2" ry="2" />
<text  x="114.14" y="191.5" ></text>
</g>
<g >
<title>[unknown]  (70,707,070 samples, 2.50%)</title><rect x="85.9" y="597" width="29.5" height="15.0" fill="rgb(253,223,53)" rx="2" ry="2" />
<text  x="88.86" y="607.5" >[u..</text>
</g>
<g >
<title>[unknown]  (20,202,020 samples, 0.71%)</title><rect x="578.9" y="565" width="8.5" height="15.0" fill="rgb(253,223,53)" rx="2" ry="2" />
<text  x="581.93" y="575.5" ></text>
</g>
<g >
<title>[unknown] (50,505,050 samples, 1.79%)</title><rect x="1168.9" y="389" width="21.1" height="15.0" fill="rgb(210,24,5)" rx="2" ry="2" />
<text  x="1171.93" y="399.5" ></text>
</g>
<g >
<title>[unknown] (10,101,010 samples, 0.36%)</title><rect x="47.9" y="565" width="4.2" height="15.0" fill="rgb(210,24,5)" rx="2" ry="2" />
<text  x="50.93" y="575.5" ></text>
</g>
<g >
<title>[unknown] (10,101,010 samples, 0.36%)</title><rect x="111.1" y="469" width="4.3" height="15.0" fill="rgb(210,24,5)" rx="2" ry="2" />
<text  x="114.14" y="479.5" ></text>
</g>
<g >
<title>[unknown] (10,101,010 samples, 0.36%)</title><rect x="1185.8" y="85" width="4.2" height="15.0" fill="rgb(210,24,5)" rx="2" ry="2" />
<text  x="1188.79" y="95.5" ></text>
</g>
<g >
<title>[unknown] (20,202,020 samples, 0.71%)</title><rect x="1181.6" y="165" width="8.4" height="15.0" fill="rgb(210,24,5)" rx="2" ry="2" />
<text  x="1184.57" y="175.5" ></text>
</g>
<g >
<title>[unknown]  (40,404,040 samples, 1.43%)</title><rect x="56.4" y="565" width="16.8" height="15.0" fill="rgb(253,223,53)" rx="2" ry="2" />
<text  x="59.36" y="575.5" ></text>
</g>
<g >
<title>[unknown]  (10,101,010 samples, 0.36%)</title><rect x="77.4" y="565" width="4.2" height="15.0" fill="rgb(253,223,53)" rx="2" ry="2" />
<text  x="80.43" y="575.5" ></text>
</g>
<g >
<title>[unknown] (10,101,010 samples, 0.36%)</title><rect x="111.1" y="133" width="4.3" height="15.0" fill="rgb(210,24,5)" rx="2" ry="2" />
<text  x="114.14" y="143.5" ></text>
</g>
<g >
<title>[unknown] (10,101,010 samples, 0.36%)</title><rect x="111.1" y="357" width="4.3" height="15.0" fill="rgb(210,24,5)" rx="2" ry="2" />
<text  x="114.14" y="367.5" ></text>
</g>
<g >
<title>[unknown] (10,101,010 samples, 0.36%)</title><rect x="587.4" y="501" width="4.2" height="15.0" fill="rgb(210,24,5)" rx="2" ry="2" />
<text  x="590.36" y="511.5" ></text>
</g>
<g >
<title>[unknown] (10,101,010 samples, 0.36%)</title><rect x="473.6" y="501" width="4.2" height="15.0" fill="rgb(210,24,5)" rx="2" ry="2" />
<text  x="476.57" y="511.5" ></text>
</g>
<g >
<title>[unknown] (10,101,010 samples, 0.36%)</title><rect x="111.1" y="293" width="4.3" height="15.0" fill="rgb(210,24,5)" rx="2" ry="2" />
<text  x="114.14" y="303.5" ></text>
</g>
<g >
<title>[unknown]  (30,303,030 samples, 1.07%)</title><rect x="102.7" y="581" width="12.7" height="15.0" fill="rgb(253,223,53)" rx="2" ry="2" />
<text  x="105.71" y="591.5" ></text>
</g>
<g >
<title>[unknown] (30,303,030 samples, 1.07%)</title><rect x="1177.4" y="245" width="12.6" height="15.0" fill="rgb(210,24,5)" rx="2" ry="2" />
<text  x="1180.36" y="255.5" ></text>
</g>
<g >
<title>[unknown] (1,313,131,300 samples, 46.43%)</title><rect x="642.1" y="549" width="547.9" height="15.0" fill="rgb(210,24,5)" rx="2" ry="2" />
<text  x="645.14" y="559.5" >[unknown]</text>
</g>
<g >
<title>[unknown] (10,101,010 samples, 0.36%)</title><rect x="1185.8" y="117" width="4.2" height="15.0" fill="rgb(210,24,5)" rx="2" ry="2" />
<text  x="1188.79" y="127.5" ></text>
</g>
<g >
<title>[unknown] (20,202,020 samples, 0.71%)</title><rect x="64.8" y="469" width="8.4" height="15.0" fill="rgb(210,24,5)" rx="2" ry="2" />
<text  x="67.79" y="479.5" ></text>
</g>
<g >
<title>[unknown] (30,303,030 samples, 1.07%)</title><rect x="1177.4" y="261" width="12.6" height="15.0" fill="rgb(210,24,5)" rx="2" ry="2" />
<text  x="1180.36" y="271.5" ></text>
</g>
<g >
<title>[unknown] (30,303,030 samples, 1.07%)</title><rect x="1177.4" y="197" width="12.6" height="15.0" fill="rgb(210,24,5)" rx="2" ry="2" />
<text  x="1180.36" y="207.5" ></text>
</g>
<g >
<title>[unknown] (20,202,020 samples, 0.71%)</title><rect x="64.8" y="437" width="8.4" height="15.0" fill="rgb(210,24,5)" rx="2" ry="2" />
<text  x="67.79" y="447.5" ></text>
</g>
<g >
<title>[unknown] (383,838,380 samples, 13.57%)</title><rect x="1029.9" y="453" width="160.1" height="15.0" fill="rgb(210,24,5)" rx="2" ry="2" />
<text  x="1032.86" y="463.5" >[unknown]</text>
</g>
<g >
<title>[unknown] (10,101,010 samples, 0.36%)</title><rect x="111.1" y="485" width="4.3" height="15.0" fill="rgb(210,24,5)" rx="2" ry="2" />
<text  x="114.14" y="495.5" ></text>
</g>
<g >
<title>[unknown] (10,101,010 samples, 0.36%)</title><rect x="111.1" y="405" width="4.3" height="15.0" fill="rgb(210,24,5)" rx="2" ry="2" />
<text  x="114.14" y="415.5" ></text>
</g>
<g >
<title>[unknown] (20,202,020 samples, 0.71%)</title><rect x="1181.6" y="149" width="8.4" height="15.0" fill="rgb(210,24,5)" rx="2" ry="2" />
<text  x="1184.57" y="159.5" ></text>
</g>
<g >
<title>Autonoma::insertIntoBVH (50,505,050 samples, 1.79%)</title><rect x="490.4" y="581" width="21.1" height="15.0" fill="rgb(248,198,47)" rx="2" ry="2" />
<text  x="493.43" y="591.5" ></text>
</g>
<g >
<title>[unknown]  (141,414,140 samples, 5.00%)</title><rect x="532.6" y="581" width="59.0" height="15.0" fill="rgb(253,223,53)" rx="2" ry="2" />
<text  x="535.57" y="591.5" >[unkno..</text>
</g>
<g >
<title>[unknown] (10,101,010 samples, 0.36%)</title><rect x="111.1" y="421" width="4.3" height="15.0" fill="rgb(210,24,5)" rx="2" ry="2" />
<text  x="114.14" y="431.5" ></text>
</g>
<g >
<title>AABB::surfaceArea (30,303,030 samples, 1.07%)</title><rect x="477.8" y="581" width="12.6" height="15.0" fill="rgb(223,86,20)" rx="2" ry="2" />
<text  x="480.79" y="591.5" ></text>
</g>
</g>
</svg>
